<svg width="300" height="300" viewBox="0 0 300 300" fill="none" xmlns="http://www.w3.org/2000/svg">
<circle cx="150" cy="150" r="150" fill="#2B3B4E"/>
<circle cx="150" cy="150" r="90" fill="#F9B54C"/>
<circle cx="150" cy="150" r="75" fill="#F4A200"/>
<path d="M145.544 131.761H144.577C144.04 128.538 142.823 126.157 140.925 124.617C139.063 123.042 136.359 122.254 132.814 122.254C130.308 122.254 127.98 122.719 125.832 123.65C123.719 124.546 121.893 125.817 120.354 127.464C118.814 129.111 117.614 131.062 116.755 133.318C115.896 135.574 115.466 138.063 115.466 140.784C115.466 143.792 115.931 146.531 116.862 149.002C117.829 151.437 119.136 153.532 120.783 155.286C122.43 157.041 124.364 158.401 126.584 159.368C128.804 160.299 131.185 160.765 133.728 160.765C136.95 160.765 139.403 159.834 141.086 157.972C142.769 156.074 143.879 153.729 144.416 150.936H145.651L144.255 159.798C143.754 160.12 143.02 160.442 142.053 160.765C141.122 161.087 140.101 161.373 138.991 161.624C137.845 161.875 136.7 162.072 135.554 162.215C134.444 162.394 133.459 162.483 132.6 162.483C129.484 162.483 126.638 161.982 124.06 160.979C121.517 159.977 119.315 158.527 117.453 156.629C115.591 154.767 114.141 152.511 113.103 149.861C112.1 147.212 111.599 144.24 111.599 140.945C111.599 137.973 112.172 135.252 113.317 132.781C114.499 130.275 116.075 128.108 118.044 126.282C119.978 124.492 122.198 123.095 124.704 122.093C127.211 121.09 129.789 120.589 132.438 120.589C134.587 120.589 136.717 120.857 138.83 121.395C140.979 121.932 143.037 122.594 145.007 123.382L145.544 131.761ZM155.212 127.84C155.212 126.837 155.14 126.014 154.997 125.369C154.854 124.725 154.603 124.223 154.245 123.865C153.851 123.471 153.296 123.203 152.58 123.06C151.9 122.916 151.005 122.845 149.895 122.845V121.502C152.15 121.538 154.675 121.556 157.468 121.556C160.297 121.556 163 121.538 165.578 121.502C169.051 121.502 172.149 122.057 174.87 123.167C177.627 124.277 179.937 125.763 181.799 127.625C183.697 129.487 185.129 131.618 186.096 134.017C187.098 136.416 187.6 138.904 187.6 141.482C187.6 144.025 187.134 146.513 186.203 148.948C185.272 151.347 183.876 153.478 182.014 155.34C180.116 157.238 177.753 158.759 174.924 159.905C172.095 161.015 168.765 161.57 164.934 161.57C163.859 161.57 162.678 161.57 161.389 161.57C160.1 161.535 158.775 161.517 157.414 161.517C156.053 161.517 154.711 161.535 153.386 161.57C152.097 161.57 150.933 161.57 149.895 161.57V160.12C151.005 160.12 151.9 160.066 152.58 159.959C153.296 159.816 153.851 159.547 154.245 159.153C154.603 158.759 154.854 158.222 154.997 157.542C155.14 156.826 155.212 155.913 155.212 154.803V127.84ZM158.811 154.856C158.811 155.966 158.9 156.862 159.079 157.542C159.258 158.187 159.598 158.688 160.1 159.046C160.601 159.404 161.317 159.637 162.248 159.744C163.179 159.852 164.379 159.905 165.847 159.905C168.962 159.905 171.647 159.404 173.903 158.401C176.159 157.399 178.003 156.056 179.436 154.373C180.904 152.69 181.978 150.721 182.658 148.465C183.339 146.209 183.679 143.846 183.679 141.375C183.679 138.546 183.231 136.022 182.336 133.802C181.441 131.546 180.17 129.63 178.522 128.055C176.84 126.515 174.799 125.333 172.399 124.51C170.036 123.65 167.351 123.221 164.343 123.221C163.698 123.221 163.09 123.239 162.517 123.274C161.979 123.274 161.478 123.292 161.013 123.328C160.511 123.364 160.082 123.4 159.724 123.436C159.366 123.436 159.061 123.436 158.811 123.436V154.856Z" fill="#524E4E"/>
<path d="M282.5 149.5C282.5 222.393 223.186 281.5 150 281.5C76.8135 281.5 17.5 222.393 17.5 149.5C17.5 76.6072 76.8135 17.5 150 17.5C223.186 17.5 282.5 76.6072 282.5 149.5Z" stroke="#F9B54C" stroke-width="5"/>
<path d="M122.874 174.974L123.014 177.119H122.29C122.172 176.332 121.905 175.769 121.49 175.431C121.076 175.092 120.5 174.923 119.764 174.923C119.247 174.923 118.765 175.024 118.316 175.228C117.876 175.422 117.491 175.701 117.161 176.065C116.831 176.421 116.573 176.857 116.387 177.373C116.201 177.881 116.107 178.448 116.107 179.074C116.107 179.76 116.209 180.378 116.412 180.928C116.615 181.478 116.89 181.948 117.237 182.337C117.593 182.726 118.003 183.027 118.469 183.238C118.943 183.45 119.442 183.556 119.967 183.556C120.618 183.556 121.135 183.348 121.516 182.934C121.896 182.519 122.15 181.965 122.277 181.271H123.052L122.696 183.505C122.544 183.606 122.345 183.704 122.1 183.797C121.863 183.882 121.609 183.953 121.338 184.013C121.067 184.08 120.792 184.131 120.513 184.165C120.233 184.207 119.979 184.229 119.751 184.229C118.989 184.229 118.291 184.106 117.656 183.86C117.03 183.615 116.488 183.268 116.031 182.819C115.583 182.371 115.231 181.833 114.978 181.207C114.732 180.572 114.609 179.874 114.609 179.112C114.609 178.41 114.753 177.762 115.041 177.17C115.329 176.569 115.71 176.053 116.184 175.621C116.658 175.189 117.199 174.855 117.809 174.618C118.426 174.373 119.061 174.25 119.713 174.25C120.271 174.25 120.817 174.322 121.351 174.466C121.892 174.61 122.4 174.779 122.874 174.974ZM125.883 178.795C126.018 178.6 126.137 178.444 126.238 178.325C126.34 178.198 126.446 178.088 126.556 177.995C126.674 177.902 126.81 177.826 126.962 177.767C127.123 177.699 127.279 177.665 127.432 177.665C127.533 177.665 127.639 177.682 127.749 177.716C127.868 177.75 127.973 177.8 128.066 177.868C128.16 177.936 128.236 178.025 128.295 178.135C128.363 178.236 128.396 178.359 128.396 178.503C128.396 178.715 128.312 178.896 128.143 179.049C127.973 179.201 127.783 179.277 127.571 179.277C127.419 179.277 127.296 179.26 127.203 179.227C127.11 179.193 127.03 179.155 126.962 179.112C126.903 179.07 126.852 179.032 126.81 178.998C126.767 178.964 126.721 178.947 126.67 178.947C126.602 178.947 126.522 178.973 126.429 179.023C126.344 179.074 126.259 179.146 126.175 179.239C126.099 179.324 126.031 179.434 125.972 179.569C125.912 179.696 125.883 179.836 125.883 179.988V182.591C125.883 182.785 125.891 182.938 125.908 183.048C125.934 183.158 125.993 183.243 126.086 183.302C126.179 183.361 126.319 183.399 126.505 183.416C126.691 183.424 126.945 183.429 127.267 183.429V184.051C127.047 184.042 126.771 184.034 126.441 184.025C126.111 184.017 125.769 184.013 125.413 184.013C125.066 184.013 124.723 184.013 124.385 184.013C124.055 184.021 123.775 184.034 123.547 184.051V183.429C123.784 183.429 123.97 183.424 124.105 183.416C124.241 183.399 124.342 183.365 124.41 183.314C124.478 183.264 124.516 183.183 124.524 183.073C124.541 182.955 124.55 182.794 124.55 182.591V179.684C124.55 179.48 124.546 179.32 124.537 179.201C124.529 179.083 124.499 178.994 124.448 178.935C124.397 178.867 124.321 178.829 124.22 178.82C124.127 178.803 123.991 178.795 123.813 178.795V178.287C124.118 178.245 124.385 178.181 124.613 178.097C124.842 178.004 125.058 177.864 125.261 177.678H125.959C125.951 177.788 125.942 177.898 125.934 178.008C125.925 178.109 125.917 178.215 125.908 178.325C125.9 178.435 125.891 178.533 125.883 178.617C125.883 178.693 125.883 178.753 125.883 178.795ZM131.151 183.518C131.067 183.314 130.969 183.077 130.859 182.807C130.758 182.527 130.648 182.24 130.529 181.943C130.411 181.647 130.288 181.351 130.161 181.055C130.043 180.75 129.928 180.466 129.818 180.204C129.717 179.933 129.624 179.692 129.539 179.48C129.463 179.269 129.404 179.104 129.361 178.985C129.294 178.791 129.205 178.655 129.095 178.579C128.985 178.503 128.777 178.465 128.473 178.465V177.855C128.633 177.864 128.858 177.872 129.146 177.881C129.433 177.881 129.729 177.881 130.034 177.881C130.339 177.881 130.627 177.881 130.897 177.881C131.168 177.872 131.367 177.868 131.494 177.868V178.465C131.308 178.482 131.16 178.499 131.05 178.516C130.94 178.533 130.859 178.562 130.809 178.604C130.758 178.638 130.728 178.685 130.72 178.744C130.72 178.803 130.732 178.88 130.758 178.973L131.85 181.804L132.967 179.062C133.06 178.841 133.068 178.689 132.992 178.604C132.916 178.52 132.721 178.478 132.408 178.478V177.855C132.544 177.864 132.73 177.872 132.967 177.881C133.204 177.881 133.445 177.881 133.69 177.881C133.944 177.881 134.181 177.877 134.401 177.868C134.63 177.86 134.803 177.851 134.922 177.843V178.478C134.761 178.478 134.63 178.49 134.528 178.516C134.427 178.541 134.338 178.583 134.262 178.643C134.194 178.702 134.131 178.782 134.071 178.884C134.021 178.985 133.965 179.108 133.906 179.252L130.923 186.323C130.864 186.459 130.779 186.577 130.669 186.679C130.567 186.78 130.449 186.865 130.313 186.933C130.187 187 130.047 187.051 129.895 187.085C129.751 187.119 129.611 187.136 129.476 187.136C129.247 187.136 129.04 187.055 128.854 186.895C128.676 186.742 128.587 186.564 128.587 186.361C128.587 186.175 128.655 186.002 128.79 185.841C128.925 185.688 129.103 185.604 129.323 185.587C129.433 185.578 129.564 185.591 129.717 185.625C129.869 185.659 129.992 185.722 130.085 185.815C130.144 185.849 130.195 185.824 130.237 185.739L131.151 183.518ZM137.524 177.678C137.499 177.932 137.482 178.097 137.474 178.173C137.474 178.241 137.469 178.355 137.461 178.516C137.579 178.406 137.698 178.304 137.816 178.211C137.943 178.109 138.075 178.021 138.21 177.944C138.354 177.86 138.519 177.792 138.705 177.741C138.891 177.69 139.094 177.665 139.314 177.665C139.704 177.665 140.055 177.754 140.368 177.932C140.69 178.101 140.965 178.329 141.193 178.617C141.422 178.896 141.595 179.214 141.714 179.569C141.841 179.925 141.904 180.285 141.904 180.648C141.904 181.122 141.82 181.575 141.65 182.007C141.49 182.438 141.257 182.819 140.952 183.149C140.656 183.479 140.296 183.742 139.873 183.937C139.45 184.131 138.98 184.229 138.464 184.229C138.354 184.229 138.244 184.22 138.134 184.203C138.024 184.186 137.918 184.161 137.816 184.127C137.723 184.102 137.643 184.072 137.575 184.038C137.507 184.013 137.469 183.996 137.461 183.987V185.701C137.461 185.87 137.469 186.006 137.486 186.107C137.512 186.209 137.562 186.285 137.639 186.336C137.723 186.395 137.846 186.433 138.007 186.45C138.168 186.467 138.392 186.476 138.68 186.476V187.11C138.502 187.102 138.244 187.093 137.905 187.085C137.567 187.076 137.215 187.072 136.852 187.072C136.488 187.072 136.136 187.076 135.798 187.085C135.468 187.093 135.218 187.102 135.049 187.11V186.476C135.294 186.476 135.489 186.467 135.633 186.45C135.777 186.433 135.882 186.395 135.95 186.336C136.026 186.285 136.073 186.205 136.09 186.095C136.107 185.993 136.115 185.849 136.115 185.663V179.684C136.115 179.48 136.111 179.32 136.103 179.201C136.094 179.083 136.064 178.994 136.014 178.935C135.963 178.867 135.887 178.829 135.785 178.82C135.692 178.803 135.557 178.795 135.379 178.795V178.287C135.684 178.245 135.95 178.181 136.179 178.097C136.407 178.004 136.623 177.864 136.826 177.678H137.524ZM137.461 182.769C137.503 182.845 137.558 182.929 137.626 183.022C137.694 183.116 137.778 183.204 137.88 183.289C137.981 183.365 138.1 183.429 138.235 183.479C138.379 183.53 138.549 183.556 138.743 183.556C139.039 183.556 139.302 183.484 139.53 183.34C139.759 183.196 139.949 183.01 140.102 182.781C140.254 182.553 140.368 182.299 140.444 182.02C140.529 181.732 140.571 181.448 140.571 181.169C140.571 180.83 140.537 180.509 140.47 180.204C140.41 179.891 140.309 179.62 140.165 179.392C140.021 179.155 139.835 178.968 139.606 178.833C139.386 178.698 139.116 178.63 138.794 178.63C138.692 178.63 138.574 178.655 138.438 178.706C138.303 178.748 138.168 178.803 138.032 178.871C137.905 178.939 137.787 179.011 137.677 179.087C137.575 179.155 137.503 179.214 137.461 179.265V182.769ZM144.532 178.833V182.261C144.532 182.489 144.545 182.675 144.57 182.819C144.596 182.963 144.63 183.077 144.672 183.162C144.723 183.238 144.778 183.293 144.837 183.327C144.896 183.353 144.96 183.365 145.027 183.365C145.078 183.365 145.146 183.353 145.23 183.327C145.324 183.302 145.421 183.268 145.522 183.226C145.632 183.175 145.747 183.111 145.865 183.035C145.984 182.959 146.098 182.87 146.208 182.769L146.576 183.302C146.305 183.581 146.005 183.805 145.675 183.975C145.353 184.144 145.01 184.229 144.646 184.229C144.189 184.229 143.834 184.11 143.58 183.873C143.326 183.628 143.199 183.302 143.199 182.896V178.833H142.323V178.401C142.763 178.283 143.085 178.076 143.288 177.779C143.491 177.483 143.639 177.056 143.732 176.497H144.532V178.021H146.525V178.833H144.532ZM153.457 180.915C153.457 181.364 153.372 181.791 153.203 182.197C153.042 182.595 152.814 182.946 152.518 183.251C152.23 183.547 151.891 183.784 151.502 183.962C151.113 184.14 150.698 184.229 150.258 184.229C149.801 184.229 149.369 184.152 148.963 184C148.557 183.839 148.201 183.619 147.896 183.34C147.6 183.052 147.363 182.709 147.186 182.312C147.008 181.914 146.919 181.469 146.919 180.979C146.919 180.538 146.995 180.119 147.147 179.722C147.308 179.315 147.528 178.96 147.808 178.655C148.087 178.351 148.417 178.109 148.798 177.932C149.187 177.754 149.61 177.665 150.067 177.665C150.55 177.665 150.998 177.745 151.413 177.906C151.828 178.059 152.188 178.279 152.492 178.566C152.797 178.846 153.034 179.188 153.203 179.595C153.372 179.993 153.457 180.433 153.457 180.915ZM151.946 181.067C151.946 180.771 151.912 180.458 151.845 180.128C151.777 179.798 151.667 179.497 151.515 179.227C151.371 178.947 151.185 178.719 150.956 178.541C150.728 178.363 150.452 178.274 150.131 178.274C149.826 178.274 149.564 178.355 149.344 178.516C149.124 178.676 148.946 178.88 148.811 179.125C148.675 179.37 148.574 179.646 148.506 179.95C148.447 180.255 148.417 180.551 148.417 180.839C148.417 181.11 148.451 181.406 148.519 181.728C148.586 182.049 148.692 182.35 148.836 182.629C148.98 182.908 149.166 183.141 149.395 183.327C149.632 183.513 149.911 183.606 150.232 183.606C150.537 183.606 150.795 183.526 151.007 183.365C151.227 183.204 151.405 183.001 151.54 182.756C151.684 182.502 151.785 182.227 151.845 181.931C151.912 181.634 151.946 181.347 151.946 181.067ZM155.349 182.312V176.078C155.349 175.85 155.336 175.668 155.311 175.532C155.294 175.397 155.243 175.295 155.158 175.228C155.074 175.151 154.947 175.101 154.777 175.075C154.617 175.05 154.396 175.037 154.117 175.037V174.453C154.405 174.453 154.714 174.457 155.044 174.466C155.382 174.466 155.721 174.466 156.06 174.466C156.407 174.466 156.745 174.466 157.075 174.466C157.405 174.457 157.718 174.453 158.015 174.453C158.869 174.453 159.627 174.589 160.287 174.859C160.956 175.13 161.519 175.49 161.976 175.938C162.433 176.379 162.78 176.886 163.017 177.462C163.254 178.029 163.372 178.617 163.372 179.227C163.372 179.827 163.258 180.416 163.029 180.991C162.809 181.567 162.471 182.079 162.014 182.527C161.557 182.976 160.981 183.34 160.287 183.619C159.602 183.89 158.793 184.025 157.862 184.025C157.625 184.017 157.346 184.013 157.024 184.013C156.711 184.013 156.381 184.013 156.034 184.013C155.696 184.013 155.357 184.013 155.019 184.013C154.688 184.013 154.388 184.017 154.117 184.025V183.403C154.405 183.403 154.629 183.395 154.79 183.378C154.951 183.353 155.074 183.302 155.158 183.226C155.243 183.149 155.294 183.039 155.311 182.896C155.336 182.752 155.349 182.557 155.349 182.312ZM156.745 175.177V182.324C156.745 182.57 156.758 182.76 156.783 182.896C156.809 183.031 156.868 183.132 156.961 183.2C157.054 183.268 157.185 183.31 157.354 183.327C157.532 183.344 157.773 183.353 158.078 183.353C158.738 183.353 159.305 183.243 159.779 183.022C160.262 182.794 160.655 182.493 160.96 182.121C161.273 181.74 161.502 181.3 161.646 180.801C161.798 180.293 161.874 179.76 161.874 179.201C161.874 178.558 161.777 177.982 161.582 177.475C161.396 176.967 161.125 176.544 160.77 176.205C160.414 175.858 159.978 175.596 159.462 175.418C158.946 175.232 158.366 175.139 157.723 175.139C157.435 175.139 157.215 175.143 157.062 175.151C156.919 175.16 156.813 175.168 156.745 175.177ZM166.533 178.795C166.669 178.6 166.787 178.444 166.889 178.325C166.99 178.198 167.096 178.088 167.206 177.995C167.325 177.902 167.46 177.826 167.612 177.767C167.773 177.699 167.93 177.665 168.082 177.665C168.184 177.665 168.289 177.682 168.399 177.716C168.518 177.75 168.624 177.8 168.717 177.868C168.81 177.936 168.886 178.025 168.945 178.135C169.013 178.236 169.047 178.359 169.047 178.503C169.047 178.715 168.962 178.896 168.793 179.049C168.624 179.201 168.433 179.277 168.222 179.277C168.069 179.277 167.947 179.26 167.854 179.227C167.76 179.193 167.68 179.155 167.612 179.112C167.553 179.07 167.502 179.032 167.46 178.998C167.418 178.964 167.371 178.947 167.32 178.947C167.253 178.947 167.172 178.973 167.079 179.023C166.994 179.074 166.91 179.146 166.825 179.239C166.749 179.324 166.681 179.434 166.622 179.569C166.563 179.696 166.533 179.836 166.533 179.988V182.591C166.533 182.785 166.542 182.938 166.559 183.048C166.584 183.158 166.643 183.243 166.736 183.302C166.829 183.361 166.969 183.399 167.155 183.416C167.341 183.424 167.595 183.429 167.917 183.429V184.051C167.697 184.042 167.422 184.034 167.092 184.025C166.762 184.017 166.419 184.013 166.063 184.013C165.716 184.013 165.374 184.013 165.035 184.013C164.705 184.021 164.426 184.034 164.197 184.051V183.429C164.434 183.429 164.62 183.424 164.756 183.416C164.891 183.399 164.993 183.365 165.061 183.314C165.128 183.264 165.166 183.183 165.175 183.073C165.192 182.955 165.2 182.794 165.2 182.591V179.684C165.2 179.48 165.196 179.32 165.188 179.201C165.179 179.083 165.149 178.994 165.099 178.935C165.048 178.867 164.972 178.829 164.87 178.82C164.777 178.803 164.642 178.795 164.464 178.795V178.287C164.769 178.245 165.035 178.181 165.264 178.097C165.492 178.004 165.708 177.864 165.911 177.678H166.609C166.601 177.788 166.592 177.898 166.584 178.008C166.576 178.109 166.567 178.215 166.559 178.325C166.55 178.435 166.542 178.533 166.533 178.617C166.533 178.693 166.533 178.753 166.533 178.795ZM171.535 179.214V182.73C171.535 182.9 171.539 183.031 171.548 183.124C171.565 183.217 171.603 183.285 171.662 183.327C171.721 183.369 171.81 183.399 171.929 183.416C172.047 183.424 172.212 183.429 172.424 183.429V184.025C172.128 184.025 171.857 184.021 171.611 184.013C171.366 184.004 171.129 184 170.9 184C170.655 184 170.401 184 170.139 184C169.885 184.008 169.61 184.017 169.313 184.025V183.429C169.525 183.429 169.69 183.424 169.809 183.416C169.927 183.408 170.016 183.382 170.075 183.34C170.134 183.289 170.168 183.217 170.177 183.124C170.194 183.031 170.202 182.9 170.202 182.73V179.684C170.202 179.48 170.198 179.32 170.189 179.201C170.181 179.083 170.151 178.994 170.101 178.935C170.05 178.867 169.974 178.829 169.872 178.82C169.779 178.803 169.644 178.795 169.466 178.795V178.287C169.771 178.245 170.037 178.181 170.266 178.097C170.494 178.004 170.71 177.864 170.913 177.678H171.611C171.577 177.932 171.556 178.202 171.548 178.49C171.539 178.77 171.535 179.011 171.535 179.214ZM170.824 174.313C171.078 174.313 171.29 174.402 171.459 174.58C171.637 174.749 171.726 174.944 171.726 175.164C171.726 175.376 171.637 175.566 171.459 175.735C171.29 175.905 171.078 175.989 170.824 175.989C170.697 175.989 170.579 175.968 170.469 175.926C170.367 175.875 170.274 175.812 170.189 175.735C170.105 175.659 170.037 175.57 169.986 175.469C169.944 175.367 169.923 175.266 169.923 175.164C169.923 174.944 170.012 174.749 170.189 174.58C170.367 174.402 170.579 174.313 170.824 174.313ZM175.521 184.229L173.693 179.455C173.6 179.21 173.524 179.023 173.465 178.896C173.406 178.761 173.342 178.664 173.274 178.604C173.215 178.537 173.135 178.499 173.033 178.49C172.94 178.482 172.813 178.478 172.652 178.478V177.843C172.805 177.86 173.016 177.872 173.287 177.881C173.558 177.881 173.841 177.881 174.138 177.881C174.434 177.881 174.722 177.881 175.001 177.881C175.28 177.872 175.496 177.86 175.648 177.843V178.478C175.42 178.478 175.242 178.486 175.115 178.503C174.988 178.511 174.904 178.545 174.861 178.604C174.819 178.655 174.815 178.74 174.849 178.858C174.882 178.968 174.938 179.129 175.014 179.341L176.017 182.058L177.108 179.315C177.185 179.129 177.24 178.981 177.273 178.871C177.316 178.761 177.32 178.676 177.286 178.617C177.252 178.558 177.18 178.524 177.07 178.516C176.969 178.499 176.816 178.49 176.613 178.49V177.843C176.799 177.86 177.003 177.872 177.223 177.881C177.451 177.881 177.675 177.881 177.896 177.881C178.124 177.881 178.34 177.877 178.543 177.868C178.746 177.86 178.92 177.851 179.063 177.843V178.478C178.92 178.478 178.801 178.49 178.708 178.516C178.615 178.533 178.535 178.575 178.467 178.643C178.399 178.71 178.336 178.808 178.276 178.935C178.217 179.053 178.145 179.214 178.061 179.417L176.105 184.229H175.521ZM184.294 180.344H180.752V180.585C180.752 180.661 180.752 180.746 180.752 180.839C180.752 180.932 180.756 181.038 180.765 181.156C180.782 181.461 180.832 181.74 180.917 181.994C181.01 182.248 181.129 182.468 181.272 182.654C181.416 182.84 181.586 182.989 181.78 183.099C181.983 183.2 182.208 183.251 182.453 183.251C182.792 183.251 183.096 183.166 183.367 182.997C183.646 182.819 183.922 182.57 184.192 182.248L184.764 182.604C184.493 183.077 184.142 183.467 183.71 183.771C183.278 184.076 182.779 184.229 182.212 184.229C181.814 184.229 181.446 184.148 181.107 183.987C180.769 183.826 180.477 183.606 180.231 183.327C179.986 183.048 179.791 182.722 179.647 182.35C179.512 181.977 179.444 181.579 179.444 181.156C179.444 180.615 179.512 180.128 179.647 179.696C179.791 179.265 179.99 178.901 180.244 178.604C180.498 178.3 180.794 178.067 181.133 177.906C181.48 177.745 181.856 177.665 182.263 177.665C182.542 177.665 182.821 177.712 183.101 177.805C183.388 177.898 183.642 178.037 183.862 178.224C184.082 178.401 184.264 178.63 184.408 178.909C184.552 179.188 184.624 179.514 184.624 179.887C184.624 180.056 184.611 180.174 184.586 180.242C184.569 180.31 184.472 180.344 184.294 180.344ZM180.854 179.658H183.062C183.164 179.658 183.219 179.65 183.228 179.633C183.244 179.616 183.253 179.561 183.253 179.468C183.253 179.341 183.228 179.214 183.177 179.087C183.134 178.951 183.067 178.829 182.974 178.719C182.881 178.609 182.766 178.52 182.631 178.452C182.504 178.384 182.36 178.351 182.199 178.351C181.818 178.351 181.514 178.473 181.285 178.719C181.065 178.964 180.921 179.277 180.854 179.658Z" fill="#524E4E"/>
</svg>
