<svg width="50" height="50" viewBox="0 0 50 50" fill="none" xmlns="http://www.w3.org/2000/svg">
<path d="M25 50C38.8071 50 50 38.8071 50 25C50 11.1929 38.8071 0 25 0C11.1929 0 0 11.1929 0 25C0 38.8071 11.1929 50 25 50Z" fill="#2B3B4E"/>
<path d="M25 39.9999C33.2843 39.9999 40 33.2841 40 24.9999C40 16.7156 33.2843 9.99988 25 9.99988C16.7157 9.99988 10 16.7156 10 24.9999C10 33.2841 16.7157 39.9999 25 39.9999Z" fill="#F9B54C"/>
<path d="M25 37.5C31.9036 37.5 37.5 31.9036 37.5 25C37.5 18.0964 31.9036 12.5 25 12.5C18.0964 12.5 12.5 18.0964 12.5 25C12.5 31.9036 18.0964 37.5 25 37.5Z" fill="#F4A200"/>
<path d="M24.2572 21.9601H24.0961C24.0066 21.423 23.8037 21.0261 23.4874 20.7695C23.1771 20.507 22.7264 20.3756 22.1356 20.3756C21.7179 20.3756 21.3299 20.4531 20.9719 20.6083C20.6197 20.7576 20.3154 20.9695 20.0589 21.244C19.8022 21.5185 19.6022 21.8436 19.4591 22.2196C19.3159 22.5956 19.2442 23.0105 19.2442 23.464C19.2442 23.9653 19.3217 24.4218 19.4769 24.8336C19.6381 25.2395 19.8559 25.5886 20.1304 25.881C20.4049 26.1735 20.7272 26.4001 21.0972 26.5613C21.4672 26.7165 21.8641 26.7941 22.2879 26.7941C22.8249 26.7941 23.2337 26.639 23.5142 26.3286C23.7947 26.0123 23.9797 25.6215 24.0692 25.156H24.2751L24.0424 26.633C23.9589 26.6866 23.8366 26.7403 23.6754 26.7941C23.5202 26.8478 23.3501 26.8955 23.1651 26.9373C22.9741 26.9791 22.7832 27.012 22.5922 27.0358C22.4072 27.0656 22.2431 27.0805 22.0999 27.0805C21.5806 27.0805 21.1062 26.997 20.6766 26.8298C20.2527 26.6628 19.8857 26.4211 19.5754 26.1048C19.2651 25.7945 19.0234 25.4185 18.8504 24.9768C18.6832 24.5353 18.5997 24.04 18.5997 23.4908C18.5997 22.9955 18.6952 22.542 18.8861 22.1301C19.0831 21.7125 19.3457 21.3513 19.6739 21.047C19.9962 20.7486 20.3662 20.5158 20.7839 20.3488C21.2017 20.1816 21.6314 20.0981 22.0729 20.0981C22.4311 20.0981 22.7861 20.1428 23.1382 20.2325C23.4964 20.322 23.8394 20.4323 24.1677 20.5636L24.2572 21.9601ZM25.8686 21.3066C25.8686 21.1395 25.8566 21.0023 25.8327 20.8948C25.8089 20.7875 25.7671 20.7038 25.7074 20.6441C25.6417 20.5785 25.5492 20.5338 25.4299 20.51C25.3166 20.486 25.1674 20.4741 24.9824 20.4741V20.2503C25.3582 20.2563 25.7791 20.2593 26.2446 20.2593C26.7161 20.2593 27.1666 20.2563 27.5962 20.2503C28.1751 20.2503 28.6914 20.3428 29.1449 20.5278C29.6044 20.7128 29.9894 20.9605 30.2997 21.2708C30.6161 21.5811 30.8547 21.9363 31.0159 22.3361C31.1829 22.736 31.2666 23.1506 31.2666 23.5803C31.2666 24.0041 31.1889 24.4188 31.0337 24.8246C30.8786 25.2245 30.6459 25.5796 30.3356 25.89C30.0192 26.2063 29.6254 26.4598 29.1539 26.6508C28.6824 26.8358 28.1274 26.9283 27.4889 26.9283C27.3097 26.9283 27.1129 26.9283 26.8981 26.9283C26.6832 26.9225 26.4624 26.9195 26.2356 26.9195C26.0087 26.9195 25.7851 26.9225 25.5642 26.9283C25.3494 26.9283 25.1554 26.9283 24.9824 26.9283V26.6866C25.1674 26.6866 25.3166 26.6776 25.4299 26.6598C25.5492 26.636 25.6417 26.5911 25.7074 26.5255C25.7671 26.4598 25.8089 26.3703 25.8327 26.257C25.8566 26.1376 25.8686 25.9855 25.8686 25.8005V21.3066ZM26.4684 25.8093C26.4684 25.9943 26.4832 26.1436 26.5131 26.257C26.5429 26.3645 26.5996 26.448 26.6832 26.5076C26.7667 26.5673 26.8861 26.6061 27.0412 26.624C27.1964 26.642 27.3964 26.6508 27.6411 26.6508C28.1602 26.6508 28.6077 26.5673 28.9837 26.4001C29.3597 26.2331 29.6671 26.0093 29.9059 25.7288C30.1506 25.4483 30.3296 25.1201 30.4429 24.7441C30.5564 24.3681 30.6131 23.9743 30.6131 23.5625C30.6131 23.091 30.5384 22.6703 30.3892 22.3003C30.2401 21.9243 30.0282 21.605 29.7536 21.3425C29.4732 21.0858 29.1331 20.8888 28.7331 20.7516C28.3392 20.6083 27.8917 20.5368 27.3904 20.5368C27.2829 20.5368 27.1816 20.5398 27.0861 20.5456C26.9964 20.5456 26.9129 20.5486 26.8354 20.5546C26.7517 20.5606 26.6802 20.5666 26.6206 20.5726C26.5609 20.5726 26.5101 20.5726 26.4684 20.5726V25.8093Z" fill="#524E4E"/>
<path d="M47.0834 24.9168C47.0834 37.0656 37.1977 46.9168 25 46.9168C12.8023 46.9168 2.91669 37.0656 2.91669 24.9168C2.91669 12.7679 12.8023 2.91675 25 2.91675C37.1977 2.91675 47.0834 12.7679 47.0834 24.9168Z" stroke="#F9B54C" stroke-width="5"/>
<path d="M20.479 29.1623L20.5023 29.5198H20.3817C20.362 29.3886 20.3175 29.2948 20.2483 29.2385C20.1793 29.182 20.0833 29.1538 19.9607 29.1538C19.8745 29.1538 19.7942 29.1706 19.7193 29.2046C19.646 29.237 19.5818 29.2835 19.5268 29.3441C19.4718 29.4035 19.4288 29.4761 19.3978 29.5621C19.3668 29.6468 19.3512 29.7413 19.3512 29.8456C19.3512 29.96 19.3682 30.063 19.402 30.1546C19.4358 30.2463 19.4817 30.3246 19.5395 30.3895C19.5988 30.4543 19.6672 30.5044 19.7448 30.5396C19.8238 30.5749 19.907 30.5926 19.9945 30.5926C20.103 30.5926 20.1892 30.5579 20.2527 30.4889C20.316 30.4198 20.3583 30.3274 20.3795 30.2118H20.5087L20.4493 30.5841C20.424 30.6009 20.3908 30.6173 20.35 30.6328C20.3105 30.6469 20.2682 30.6588 20.223 30.6688C20.1778 30.6799 20.132 30.6884 20.0855 30.6941C20.0388 30.7011 19.9965 30.7048 19.9585 30.7048C19.8315 30.7048 19.7152 30.6843 19.6093 30.6433C19.505 30.6024 19.4147 30.5446 19.3385 30.4698C19.2638 30.3951 19.2052 30.3055 19.163 30.2011C19.122 30.0953 19.1015 29.979 19.1015 29.852C19.1015 29.735 19.1255 29.627 19.1735 29.5283C19.2215 29.4281 19.285 29.3421 19.364 29.2701C19.443 29.1981 19.5332 29.1425 19.6348 29.103C19.7377 29.0621 19.8435 29.0416 19.9522 29.0416C20.0452 29.0416 20.1362 29.0536 20.2252 29.0776C20.3153 29.1016 20.4 29.1298 20.479 29.1623ZM20.9805 29.7991C21.003 29.7666 21.0228 29.7406 21.0397 29.7208C21.0567 29.6996 21.0743 29.6813 21.0927 29.6658C21.1123 29.6503 21.135 29.6376 21.1603 29.6278C21.1872 29.6165 21.2132 29.6108 21.2387 29.6108C21.2555 29.6108 21.2732 29.6136 21.2915 29.6193C21.3113 29.625 21.3288 29.6333 21.3443 29.6446C21.36 29.656 21.3727 29.6708 21.3825 29.6891C21.3938 29.706 21.3993 29.7265 21.3993 29.7505C21.3993 29.7858 21.3853 29.816 21.3572 29.8415C21.3288 29.8668 21.2972 29.8795 21.2618 29.8795C21.2365 29.8795 21.216 29.8766 21.2005 29.8711C21.185 29.8655 21.1717 29.8591 21.1603 29.852C21.1505 29.845 21.142 29.8386 21.135 29.833C21.1278 29.8273 21.1202 29.8245 21.1117 29.8245C21.1003 29.8245 21.087 29.8288 21.0715 29.8371C21.0573 29.8456 21.0432 29.8576 21.0292 29.8731C21.0165 29.8873 21.0052 29.9056 20.9953 29.9281C20.9853 29.9493 20.9805 29.9726 20.9805 29.998V30.4318C20.9805 30.4641 20.9818 30.4896 20.9847 30.5079C20.989 30.5263 20.9988 30.5404 21.0143 30.5503C21.0298 30.5601 21.0532 30.5664 21.0842 30.5693C21.1152 30.5706 21.1575 30.5714 21.2112 30.5714V30.6751C21.1745 30.6736 21.1285 30.6723 21.0735 30.6708C21.0185 30.6694 20.9615 30.6688 20.9022 30.6688C20.8443 30.6688 20.7872 30.6688 20.7308 30.6688C20.6758 30.6701 20.6292 30.6723 20.5912 30.6751V30.5714C20.6307 30.5714 20.6617 30.5706 20.6842 30.5693C20.7068 30.5664 20.7237 30.5608 20.735 30.5523C20.7463 30.5439 20.7527 30.5304 20.754 30.5121C20.7568 30.4924 20.7583 30.4656 20.7583 30.4318V29.9473C20.7583 29.9133 20.7577 29.8866 20.7562 29.8668C20.7548 29.8471 20.7498 29.8323 20.7413 29.8225C20.7328 29.8111 20.7202 29.8048 20.7033 29.8033C20.6878 29.8005 20.6652 29.7991 20.6355 29.7991V29.7145C20.6863 29.7075 20.7308 29.6968 20.7688 29.6828C20.807 29.6673 20.843 29.644 20.8768 29.613H20.9932C20.9918 29.6313 20.9903 29.6496 20.989 29.668C20.9875 29.6848 20.9862 29.7025 20.9847 29.7208C20.9833 29.7391 20.9818 29.7555 20.9805 29.7695C20.9805 29.7821 20.9805 29.7921 20.9805 29.7991ZM21.8585 30.5863C21.8445 30.5523 21.8282 30.5128 21.8098 30.4678C21.793 30.4211 21.7747 30.3733 21.7548 30.3238C21.7352 30.2744 21.7147 30.2251 21.6935 30.1758C21.6738 30.125 21.6547 30.0776 21.6363 30.034C21.6195 29.9888 21.604 29.9486 21.5898 29.9133C21.5772 29.8781 21.5673 29.8506 21.5602 29.8308C21.549 29.7985 21.5342 29.7758 21.5158 29.7631C21.4975 29.7505 21.4628 29.7441 21.4122 29.7441V29.6425C21.4388 29.644 21.4763 29.6453 21.5243 29.6468C21.5722 29.6468 21.6215 29.6468 21.6723 29.6468C21.7232 29.6468 21.7712 29.6468 21.8162 29.6468C21.8613 29.6453 21.8945 29.6446 21.9157 29.6446V29.7441C21.8847 29.747 21.86 29.7498 21.8417 29.7526C21.8233 29.7555 21.8098 29.7603 21.8015 29.7673C21.793 29.773 21.788 29.7808 21.7867 29.7906C21.7867 29.8005 21.7887 29.8133 21.793 29.8288L21.975 30.3006L22.1612 29.8436C22.1767 29.8068 22.178 29.7815 22.1653 29.7673C22.1527 29.7533 22.1202 29.7463 22.068 29.7463V29.6425C22.0907 29.644 22.1217 29.6453 22.1612 29.6468C22.2007 29.6468 22.2408 29.6468 22.2817 29.6468C22.324 29.6468 22.3635 29.6461 22.4002 29.6446C22.4383 29.6433 22.4672 29.6418 22.487 29.6405V29.7463C22.4602 29.7463 22.4383 29.7483 22.4213 29.7526C22.4045 29.7568 22.3897 29.7638 22.377 29.7738C22.3657 29.7836 22.3552 29.797 22.3452 29.814C22.3368 29.8308 22.3275 29.8513 22.3177 29.8753L21.8205 31.0538C21.8107 31.0764 21.7965 31.0961 21.7782 31.1131C21.7612 31.1299 21.7415 31.1441 21.7188 31.1554C21.6978 31.1666 21.6745 31.1751 21.6492 31.1808C21.6252 31.1864 21.6018 31.1893 21.5793 31.1893C21.5412 31.1893 21.5067 31.1758 21.4757 31.1491C21.446 31.1236 21.4312 31.0939 21.4312 31.0601C21.4312 31.0291 21.4425 31.0003 21.465 30.9734C21.4875 30.9479 21.5172 30.9339 21.5538 30.9311C21.5722 30.9296 21.594 30.9318 21.6195 30.9374C21.6448 30.9431 21.6653 30.9536 21.6808 30.9691C21.6907 30.9748 21.6992 30.9706 21.7062 30.9564L21.8585 30.5863ZM22.9207 29.613C22.9165 29.6553 22.9137 29.6828 22.9123 29.6955C22.9123 29.7068 22.9115 29.7258 22.9102 29.7526C22.9298 29.7343 22.9497 29.7173 22.9693 29.7018C22.9905 29.6848 23.0125 29.6701 23.035 29.6573C23.059 29.6433 23.0865 29.632 23.1175 29.6235C23.1485 29.615 23.1823 29.6108 23.219 29.6108C23.284 29.6108 23.3425 29.6256 23.3947 29.6553C23.4483 29.6835 23.4942 29.7215 23.5322 29.7695C23.5703 29.816 23.5992 29.869 23.619 29.9281C23.6402 29.9875 23.6507 30.0475 23.6507 30.108C23.6507 30.187 23.6367 30.2625 23.6083 30.3345C23.5817 30.4063 23.5428 30.4698 23.492 30.5248C23.4427 30.5798 23.3827 30.6236 23.3122 30.6561C23.2417 30.6884 23.1633 30.7048 23.0773 30.7048C23.059 30.7048 23.0407 30.7033 23.0223 30.7004C23.004 30.6976 22.9863 30.6934 22.9693 30.6878C22.9538 30.6836 22.9405 30.6786 22.9292 30.6729C22.9178 30.6688 22.9115 30.6659 22.9102 30.6644V30.9501C22.9102 30.9783 22.9115 31.0009 22.9143 31.0178C22.9187 31.0348 22.927 31.0474 22.9398 31.0559C22.9538 31.0658 22.9743 31.0721 23.0012 31.0749C23.028 31.0778 23.0653 31.0793 23.1133 31.0793V31.1849C23.0837 31.1836 23.0407 31.1821 22.9842 31.1808C22.9278 31.1793 22.8692 31.1786 22.8087 31.1786C22.748 31.1786 22.6893 31.1793 22.633 31.1808C22.578 31.1821 22.5363 31.1836 22.5082 31.1849V31.0793C22.549 31.0793 22.5815 31.0778 22.6055 31.0749C22.6295 31.0721 22.647 31.0658 22.6583 31.0559C22.671 31.0474 22.6788 31.0341 22.6817 31.0158C22.6845 30.9988 22.6858 30.9748 22.6858 30.9438V29.9473C22.6858 29.9133 22.6852 29.8866 22.6838 29.8668C22.6823 29.8471 22.6773 29.8323 22.669 29.8225C22.6605 29.8111 22.6478 29.8048 22.6308 29.8033C22.6153 29.8005 22.5928 29.7991 22.5632 29.7991V29.7145C22.614 29.7075 22.6583 29.6968 22.6965 29.6828C22.7345 29.6673 22.7705 29.644 22.8043 29.613H22.9207ZM22.9102 30.4614C22.9172 30.4741 22.9263 30.4881 22.9377 30.5036C22.949 30.5193 22.963 30.5339 22.98 30.5481C22.9968 30.5608 23.0167 30.5714 23.0392 30.5798C23.0632 30.5883 23.0915 30.5926 23.1238 30.5926C23.1732 30.5926 23.217 30.5806 23.255 30.5566C23.2932 30.5326 23.3248 30.5016 23.3503 30.4635C23.3757 30.4255 23.3947 30.3831 23.4073 30.3366C23.4215 30.2886 23.4285 30.2413 23.4285 30.1948C23.4285 30.1383 23.4228 30.0848 23.4117 30.034C23.4017 29.9818 23.3848 29.9366 23.3608 29.8986C23.3368 29.8591 23.3058 29.828 23.2677 29.8055C23.231 29.783 23.186 29.7716 23.1323 29.7716C23.1153 29.7716 23.0957 29.7758 23.073 29.7843C23.0505 29.7913 23.028 29.8005 23.0053 29.8118C22.9842 29.8231 22.9645 29.8351 22.9462 29.8478C22.9292 29.8591 22.9172 29.869 22.9102 29.8775V30.4614ZM24.0887 29.8055V30.3768C24.0887 30.4148 24.0908 30.4458 24.095 30.4698C24.0993 30.4938 24.105 30.5128 24.112 30.5269C24.1205 30.5396 24.1297 30.5488 24.1395 30.5544C24.1493 30.5588 24.16 30.5608 24.1712 30.5608C24.1797 30.5608 24.191 30.5588 24.205 30.5544C24.2207 30.5503 24.2368 30.5446 24.2537 30.5376C24.272 30.5291 24.2912 30.5184 24.3108 30.5058C24.3307 30.4931 24.3497 30.4783 24.368 30.4614L24.4293 30.5503C24.3842 30.5968 24.3342 30.6341 24.2792 30.6624C24.2255 30.6906 24.1683 30.7048 24.1077 30.7048C24.0315 30.7048 23.9723 30.6849 23.93 30.6454C23.8877 30.6046 23.8665 30.5503 23.8665 30.4826V29.8055H23.7205V29.7335C23.7938 29.7138 23.8475 29.6793 23.8813 29.6298C23.9152 29.5805 23.9398 29.5093 23.9553 29.4161H24.0887V29.6701H24.4208V29.8055H24.0887ZM25.5762 30.1525C25.5762 30.2273 25.562 30.2985 25.5338 30.3661C25.507 30.4325 25.469 30.491 25.4197 30.5418C25.3717 30.5911 25.3152 30.6306 25.2503 30.6603C25.1855 30.6899 25.1163 30.7048 25.043 30.7048C24.9668 30.7048 24.8948 30.6919 24.8272 30.6666C24.7595 30.6398 24.7002 30.6031 24.6493 30.5566C24.6 30.5086 24.5605 30.4514 24.531 30.3853C24.5013 30.3189 24.4865 30.2448 24.4865 30.1631C24.4865 30.0896 24.4992 30.0198 24.5245 29.9536C24.5513 29.8858 24.588 29.8266 24.6347 29.7758C24.6812 29.7251 24.7362 29.6848 24.7997 29.6553C24.8645 29.6256 24.935 29.6108 25.0112 29.6108C25.0917 29.6108 25.1663 29.6241 25.2355 29.651C25.3047 29.6765 25.3647 29.7131 25.4153 29.761C25.4662 29.8076 25.5057 29.8646 25.5338 29.9325C25.562 29.9988 25.5762 30.0721 25.5762 30.1525ZM25.3243 30.1778C25.3243 30.1285 25.3187 30.0763 25.3075 30.0213C25.2962 29.9663 25.2778 29.9161 25.2525 29.8711C25.2285 29.8245 25.1975 29.7865 25.1593 29.7568C25.1213 29.7271 25.0753 29.7123 25.0218 29.7123C24.971 29.7123 24.9273 29.7258 24.8907 29.7526C24.854 29.7793 24.8243 29.8133 24.8018 29.8541C24.7792 29.895 24.7623 29.941 24.751 29.9916C24.7412 30.0425 24.7362 30.0918 24.7362 30.1398C24.7362 30.185 24.7418 30.2343 24.7532 30.2879C24.7643 30.3414 24.782 30.3916 24.806 30.4381C24.83 30.4846 24.861 30.5234 24.8992 30.5544C24.9387 30.5854 24.9852 30.6009 25.0387 30.6009C25.0895 30.6009 25.1325 30.5876 25.1678 30.5608C25.2045 30.5339 25.2342 30.5001 25.2567 30.4593C25.2807 30.4169 25.2975 30.3711 25.3075 30.3218C25.3187 30.2723 25.3243 30.2245 25.3243 30.1778ZM25.8915 30.3853V29.3463C25.8915 29.3083 25.8893 29.278 25.8852 29.2553C25.8823 29.2328 25.8738 29.2158 25.8597 29.2046C25.8457 29.1918 25.8245 29.1835 25.7962 29.1791C25.7695 29.175 25.7327 29.1728 25.6862 29.1728V29.0755C25.7342 29.0755 25.7857 29.0761 25.8407 29.0776C25.897 29.0776 25.9535 29.0776 26.01 29.0776C26.0678 29.0776 26.1242 29.0776 26.1792 29.0776C26.2342 29.0761 26.2863 29.0755 26.3358 29.0755C26.4782 29.0755 26.6045 29.0981 26.7145 29.1431C26.826 29.1883 26.9198 29.2483 26.996 29.323C27.0722 29.3965 27.13 29.481 27.1695 29.577C27.209 29.6715 27.2287 29.7695 27.2287 29.8711C27.2287 29.9711 27.2097 30.0693 27.1715 30.1651C27.1348 30.2611 27.0785 30.3464 27.0023 30.4211C26.9262 30.4959 26.8302 30.5566 26.7145 30.6031C26.6003 30.6483 26.4655 30.6708 26.3103 30.6708C26.2708 30.6694 26.2243 30.6688 26.1707 30.6688C26.1185 30.6688 26.0635 30.6688 26.0057 30.6688C25.9493 30.6688 25.8928 30.6688 25.8365 30.6688C25.7813 30.6688 25.7313 30.6694 25.6862 30.6708V30.5671C25.7342 30.5671 25.7715 30.5658 25.7983 30.5629C25.8252 30.5588 25.8457 30.5503 25.8597 30.5376C25.8738 30.5248 25.8823 30.5064 25.8852 30.4826C25.8893 30.4586 25.8915 30.4261 25.8915 30.3853ZM26.1242 29.1961V30.3873C26.1242 30.4283 26.1263 30.4599 26.1305 30.4826C26.1348 30.5051 26.1447 30.5219 26.1602 30.5333C26.1757 30.5446 26.1975 30.5516 26.2257 30.5544C26.2553 30.5573 26.2955 30.5588 26.3463 30.5588C26.4563 30.5588 26.5508 30.5404 26.6298 30.5036C26.7103 30.4656 26.7758 30.4154 26.8267 30.3535C26.8788 30.29 26.917 30.2166 26.941 30.1335C26.9663 30.0488 26.979 29.96 26.979 29.8668C26.979 29.7596 26.9628 29.6636 26.9303 29.5791C26.8993 29.4945 26.8542 29.424 26.795 29.3675C26.7357 29.3096 26.663 29.266 26.577 29.2363C26.491 29.2053 26.3943 29.1898 26.2872 29.1898C26.2392 29.1898 26.2025 29.1905 26.177 29.1918C26.1532 29.1933 26.1355 29.1946 26.1242 29.1961ZM27.7555 29.7991C27.7782 29.7666 27.7978 29.7406 27.8148 29.7208C27.8317 29.6996 27.8493 29.6813 27.8677 29.6658C27.8875 29.6503 27.91 29.6376 27.9353 29.6278C27.9622 29.6165 27.9883 29.6108 28.0137 29.6108C28.0307 29.6108 28.0482 29.6136 28.0665 29.6193C28.0863 29.625 28.104 29.6333 28.1195 29.6446C28.135 29.656 28.1477 29.6708 28.1575 29.6891C28.1688 29.706 28.1745 29.7265 28.1745 29.7505C28.1745 29.7858 28.1603 29.816 28.1322 29.8415C28.104 29.8668 28.0722 29.8795 28.037 29.8795C28.0115 29.8795 27.9912 29.8766 27.9757 29.8711C27.96 29.8655 27.9467 29.8591 27.9353 29.852C27.9255 29.845 27.917 29.8386 27.91 29.833C27.903 29.8273 27.8952 29.8245 27.8867 29.8245C27.8755 29.8245 27.862 29.8288 27.8465 29.8371C27.8323 29.8456 27.8183 29.8576 27.8042 29.8731C27.7915 29.8873 27.7802 29.9056 27.7703 29.9281C27.7605 29.9493 27.7555 29.9726 27.7555 29.998V30.4318C27.7555 30.4641 27.757 30.4896 27.7598 30.5079C27.764 30.5263 27.7738 30.5404 27.7893 30.5503C27.8048 30.5601 27.8282 30.5664 27.8592 30.5693C27.8902 30.5706 27.9325 30.5714 27.9862 30.5714V30.6751C27.9495 30.6736 27.9037 30.6723 27.8487 30.6708C27.7937 30.6694 27.7365 30.6688 27.6772 30.6688C27.6193 30.6688 27.5623 30.6688 27.5058 30.6688C27.4508 30.6701 27.4043 30.6723 27.3662 30.6751V30.5714C27.4057 30.5714 27.4367 30.5706 27.4593 30.5693C27.4818 30.5664 27.4988 30.5608 27.5102 30.5523C27.5213 30.5439 27.5277 30.5304 27.5292 30.5121C27.532 30.4924 27.5333 30.4656 27.5333 30.4318V29.9473C27.5333 29.9133 27.5327 29.8866 27.5313 29.8668C27.5298 29.8471 27.5248 29.8323 27.5165 29.8225C27.508 29.8111 27.4953 29.8048 27.4783 29.8033C27.4628 29.8005 27.4403 29.7991 27.4107 29.7991V29.7145C27.4615 29.7075 27.5058 29.6968 27.544 29.6828C27.582 29.6673 27.618 29.644 27.6518 29.613H27.7682C27.7668 29.6313 27.7653 29.6496 27.764 29.668C27.7627 29.6848 27.7612 29.7025 27.7598 29.7208C27.7583 29.7391 27.757 29.7555 27.7555 29.7695C27.7555 29.7821 27.7555 29.7921 27.7555 29.7991ZM28.5892 29.869V30.4549C28.5892 30.4833 28.5898 30.5051 28.5913 30.5206C28.5942 30.5361 28.6005 30.5474 28.6103 30.5544C28.6202 30.5614 28.635 30.5664 28.6548 30.5693C28.6745 30.5706 28.702 30.5714 28.7373 30.5714V30.6708C28.688 30.6708 28.6428 30.6701 28.6018 30.6688C28.561 30.6673 28.5215 30.6666 28.4833 30.6666C28.4425 30.6666 28.4002 30.6666 28.3565 30.6666C28.3142 30.6679 28.2683 30.6694 28.2188 30.6708V30.5714C28.2542 30.5714 28.2817 30.5706 28.3015 30.5693C28.3212 30.5679 28.336 30.5636 28.3458 30.5566C28.3557 30.5481 28.3613 30.5361 28.3628 30.5206C28.3657 30.5051 28.367 30.4833 28.367 30.4549V29.9473C28.367 29.9133 28.3663 29.8866 28.3648 29.8668C28.3635 29.8471 28.3585 29.8323 28.3502 29.8225C28.3417 29.8111 28.329 29.8048 28.312 29.8033C28.2965 29.8005 28.274 29.7991 28.2443 29.7991V29.7145C28.2952 29.7075 28.3395 29.6968 28.3777 29.6828C28.4157 29.6673 28.4517 29.644 28.4855 29.613H28.6018C28.5962 29.6553 28.5927 29.7003 28.5913 29.7483C28.5898 29.795 28.5892 29.8351 28.5892 29.869ZM28.4707 29.0521C28.513 29.0521 28.5483 29.067 28.5765 29.0966C28.6062 29.1248 28.621 29.1573 28.621 29.194C28.621 29.2293 28.6062 29.261 28.5765 29.2891C28.5483 29.3175 28.513 29.3315 28.4707 29.3315C28.4495 29.3315 28.4298 29.328 28.4115 29.321C28.3945 29.3125 28.379 29.302 28.3648 29.2891C28.3508 29.2765 28.3395 29.2616 28.331 29.2448C28.324 29.2278 28.3205 29.211 28.3205 29.194C28.3205 29.1573 28.3353 29.1248 28.3648 29.0966C28.3945 29.067 28.4298 29.0521 28.4707 29.0521ZM29.2535 30.7048L28.9488 29.9091C28.9333 29.8683 28.9207 29.8371 28.9108 29.816C28.901 29.7935 28.8903 29.7773 28.879 29.7673C28.8692 29.7561 28.8558 29.7498 28.8388 29.7483C28.8233 29.747 28.8022 29.7463 28.7753 29.7463V29.6405C28.8008 29.6433 28.836 29.6453 28.8812 29.6468C28.9263 29.6468 28.9735 29.6468 29.023 29.6468C29.0723 29.6468 29.1203 29.6468 29.1668 29.6468C29.2133 29.6453 29.2493 29.6433 29.2747 29.6405V29.7463C29.2367 29.7463 29.207 29.7476 29.1858 29.7505C29.1647 29.7518 29.1507 29.7575 29.1435 29.7673C29.1365 29.7758 29.1358 29.79 29.1415 29.8096C29.147 29.828 29.1563 29.8548 29.169 29.8901L29.3362 30.3429L29.518 29.8858C29.5308 29.8548 29.54 29.8301 29.5455 29.8118C29.5527 29.7935 29.5533 29.7793 29.5477 29.7695C29.542 29.7596 29.53 29.754 29.5117 29.7526C29.4948 29.7498 29.4693 29.7483 29.4355 29.7483V29.6405C29.4665 29.6433 29.5005 29.6453 29.5372 29.6468C29.5752 29.6468 29.6125 29.6468 29.6493 29.6468C29.6873 29.6468 29.7233 29.6461 29.7572 29.6446C29.791 29.6433 29.82 29.6418 29.8438 29.6405V29.7463C29.82 29.7463 29.8002 29.7483 29.7847 29.7526C29.7692 29.7555 29.7558 29.7625 29.7445 29.7738C29.7332 29.785 29.7227 29.8013 29.7127 29.8225C29.7028 29.8421 29.6908 29.869 29.6768 29.9028L29.3508 30.7048H29.2535ZM30.7157 30.0573H30.1253V30.0975C30.1253 30.1101 30.1253 30.1243 30.1253 30.1398C30.1253 30.1553 30.126 30.173 30.1275 30.1926C30.1303 30.2435 30.1387 30.29 30.1528 30.3323C30.1683 30.3746 30.1882 30.4113 30.212 30.4423C30.236 30.4733 30.2643 30.4981 30.2967 30.5164C30.3305 30.5333 30.368 30.5418 30.4088 30.5418C30.4653 30.5418 30.516 30.5276 30.5612 30.4994C30.6077 30.4698 30.6537 30.4283 30.6987 30.3746L30.794 30.434C30.7488 30.5128 30.6903 30.5778 30.6183 30.6284C30.5463 30.6793 30.4632 30.7048 30.3687 30.7048C30.3023 30.7048 30.241 30.6913 30.1845 30.6644C30.1282 30.6376 30.0795 30.6009 30.0385 30.5544C29.9977 30.5079 29.9652 30.4536 29.9412 30.3916C29.9187 30.3295 29.9073 30.2631 29.9073 30.1926C29.9073 30.1025 29.9187 30.0213 29.9412 29.9493C29.9652 29.8775 29.9983 29.8168 30.0407 29.7673C30.083 29.7166 30.1323 29.6778 30.1888 29.651C30.2467 29.6241 30.3093 29.6108 30.3772 29.6108C30.4237 29.6108 30.4702 29.6186 30.5168 29.6341C30.5647 29.6496 30.607 29.6728 30.6437 29.704C30.6803 29.7335 30.7107 29.7716 30.7347 29.8181C30.7587 29.8646 30.7707 29.919 30.7707 29.9811C30.7707 30.0093 30.7685 30.029 30.7643 30.0403C30.7615 30.0516 30.7453 30.0573 30.7157 30.0573ZM30.1423 29.943H30.5103C30.5273 29.943 30.5365 29.9416 30.538 29.9388C30.5407 29.936 30.5422 29.9268 30.5422 29.9113C30.5422 29.8901 30.538 29.869 30.5295 29.8478C30.5223 29.8251 30.5112 29.8048 30.4957 29.7865C30.4802 29.7681 30.461 29.7533 30.4385 29.742C30.4173 29.7306 30.3933 29.7251 30.3665 29.7251C30.303 29.7251 30.2523 29.7455 30.2142 29.7865C30.1775 29.8273 30.1535 29.8795 30.1423 29.943Z" fill="#524E4E"/>
</svg>
